<?xml version="1.0" encoding="utf-8"?>
<!-- Generator: Adobe Illustrator 18.0.0, SVG Export Plug-In . SVG Version: 6.00 Build 0)  -->
<!DOCTYPE svg PUBLIC "-//W3C//DTD SVG 1.1//EN" "http://www.w3.org/Graphics/SVG/1.1/DTD/svg11.dtd">
<svg version="1.1" id="Layer_1" xmlns="http://www.w3.org/2000/svg" xmlns:xlink="http://www.w3.org/1999/xlink" x="0px" y="0px"
	 viewBox="0 0 64 64" enable-background="new 0 0 64 64" xml:space="preserve">
<g>
	<circle cx="32" cy="8" r="2" fill="#ffffff"/>
	<rect x="17" y="34" width="4" height="4" fill="#ffffff"/>
	<rect x="17" y="42" width="4" height="4" fill="#ffffff"/>
	<rect x="25" y="42" width="22" height="4" fill="#ffffff"/>
	<rect x="17" y="26" width="4" height="4" fill="#ffffff"/>
	<path fill="#ffffff" d="M52,11h-5V6h-7.3c-0.9-3.4-4-6-7.7-6s-6.9,2.6-7.7,6H17v5h-5c-2.2,0-4,1.8-4,4v45c0,2.2,1.8,4,4,4h40c2.2,0,4-1.8,4-4V15
		C56,12.8,54.2,11,52,11z M21,10h7V8c0-2.2,1.8-4,4-4s4,1.8,4,4v2h7v6H21V10z M52,60H12V15h5v5h30v-5h5V60z"/>
	<rect x="25" y="26" width="22" height="4" fill="#ffffff"/>
	<rect x="25" y="34" width="22" height="4" fill="#ffffff"/>
</g>
</svg>
