<svg id="Layer_1" enable-background="new 0 0 511.972 511.972" height="512" viewBox="0 0 511.972 511.972" width="512" xmlns="http://www.w3.org/2000/svg"><g><path fill="#fff" d="m175.246 405c-4.142 7.174-1.684 16.348 5.49 20.49 2.362 1.364 4.941 2.012 7.486 2.012 5.184 0 10.226-2.69 13.004-7.502l88.5-153.286c4.142-7.174 1.684-16.348-5.49-20.49-7.176-4.144-16.348-1.685-20.49 5.49z"/><path fill="#fff" d="m199.452 319.852c6.01-10.41 7.607-22.537 4.496-34.147s-10.557-21.314-20.967-27.324-22.537-7.606-34.147-4.496c-11.61 3.111-21.314 10.557-27.324 20.967-12.406 21.489-5.018 49.065 16.471 61.471 6.934 4.003 14.629 6.049 22.427 6.048 3.908 0 7.844-.514 11.72-1.552 11.61-3.111 21.314-10.557 27.324-20.967zm-25.981-15c-2.003 3.47-5.238 5.952-9.108 6.989s-7.912.505-11.383-1.499c-7.163-4.136-9.625-13.328-5.49-20.491 2.003-3.47 5.238-5.952 9.108-6.989 1.292-.346 2.604-.518 3.907-.518 2.599 0 5.165.682 7.476 2.016 3.47 2.003 5.952 5.238 6.989 9.108 1.037 3.872.505 7.914-1.499 11.384z"/><path fill="#fff" d="m271.52 352.852c-12.406 21.489-5.017 49.065 16.471 61.471 6.935 4.003 14.63 6.049 22.428 6.049 3.908 0 7.843-.514 11.72-1.553 11.61-3.111 21.314-10.557 27.324-20.967 12.406-21.488 5.018-49.064-16.471-61.471-21.49-12.407-49.067-5.018-61.472 16.471zm25.98 15c2.775-4.807 7.828-7.497 13.016-7.497 2.543 0 5.119.646 7.475 2.006 7.163 4.136 9.626 13.328 5.491 20.491-2.003 3.47-5.238 5.952-9.108 6.989-3.868 1.038-7.911.505-11.382-1.499-7.164-4.136-9.627-13.328-5.492-20.49z"/><path fill="#fff" d="m456.486 53c0-29.224-23.776-53-53-53h-126c-27.9 0-51.166 20.155-56.044 46.667l-159.779 116.203c-3.881 2.822-6.177 7.332-6.177 12.131v321.971c0 8.284 6.716 15 15 15h330c8.284 0 15-6.716 15-15v-321.972c0-4.799-2.296-9.309-6.177-12.131l-78.196-56.869h72.373c29.224 0 53-23.776 53-53zm-71 428.972h-300v-299.333l135-98.182v35.543c0 8.284 6.716 15 15 15s15-6.716 15-15v-35.543l135 98.182zm-133.585-433.581c3.603-10.678 13.706-18.391 25.584-18.391h126c12.682 0 23 10.318 23 23s-10.318 23-23 23h-113.622z"/></g></svg>