<svg
      xmlns="http://www.w3.org/2000/svg"
      width="512pt"
      height="512pt"
      viewBox="0 0 512 512"
    >
      <path fill="#000" d="M161.75 20.004c-4.176 0-8.012-2.711-9.414-6.637-1.445-4.047-.09-8.687 3.324-11.3 3.145-2.41 7.5-2.704 10.957-.79 3.742 2.07 5.785 6.485 4.934 10.68-.934 4.606-5.086 8.047-9.801 8.047zm0 0"></path>
      <path fill="#000" d="M277.379 0h-70.05c-5.52 0-10 4.48-10 10 0 5.523 4.48 10 10 10h70.05c4.113 0 7.46 3.352 7.46 7.465v30.672H39.02V27.465c0-4.117 3.348-7.465 7.465-7.465h70.047c5.524 0 10-4.477 10-10s-4.476-10-10-10H46.484C31.34 0 19.02 12.32 19.02 27.465v40.672c0 5.52 4.476 10 10 10h2.539v149.039c0 14.758 12.003 26.762 26.761 26.762h207.22c14.757 0 26.76-12.004 26.76-26.762V78.136h2.54c5.523 0 10-4.48 10-10V27.466C304.84 12.32 292.52 0 277.379 0zm-86.117 78.137v71.297l-24.64-13.09a10.008 10.008 0 00-9.383 0l-24.641 13.09V78.137zM272.3 227.176a6.77 6.77 0 01-6.762 6.762H58.32c-3.726 0-6.761-3.036-6.761-6.762V78.136h61.039v87.93c0 3.508 1.84 6.762 4.847 8.57a10.015 10.015 0 009.844.262l34.64-18.398 34.641 18.398a9.984 9.984 0 004.692 1.168 10.002 10.002 0 0010-10v-87.93H272.3zm0 0"></path>
      <path fill="#000" d="M478.176 183.32h-7.617l-37.61-84.363c-7.87-17.656-25.445-29.105-44.773-29.168l-50.516-.164h-.031a10.005 10.005 0 00-10 10V289.59H10c-5.523 0-10 4.476-10 10v53.84c0 5.52 4.477 10 10 10h56.934c6.968 24.105 29.234 41.78 55.554 41.78s48.586-17.675 55.555-41.78h171.812c6.965 24.105 29.235 41.78 55.551 41.78 26.32 0 48.59-17.675 55.555-41.78H502c5.523 0 10-4.48 10-10V217.152c0-18.652-15.176-33.832-33.824-33.832zM347.629 89.656l40.48.133c11.473.035 21.903 6.832 26.575 17.309l33.976 76.226H347.63zm0 113.664h130.547c7.62 0 13.824 6.207 13.824 13.832v72.438H347.629zm.101 140.11H180.168c-.879-12.89-6.004-24.633-13.98-33.84H361.71c-7.98 9.207-13.102 20.95-13.98 33.84zM20 309.59h58.79c-7.978 9.207-13.103 20.95-13.981 33.84H20zm102.488 75.62c-20.851 0-37.812-16.96-37.812-37.812 0-20.847 16.96-37.812 37.812-37.812 20.852 0 37.813 16.965 37.813 37.812.004 20.852-16.961 37.813-37.813 37.813zm282.918 0c-20.847 0-37.812-16.96-37.812-37.812 0-20.847 16.965-37.812 37.812-37.812 20.852 0 37.817 16.965 37.817 37.812 0 20.852-16.965 37.813-37.817 37.813zM492 343.43h-28.914c-.879-12.89-6-24.633-13.977-33.84H492zm0 0"></path>
    </svg>