<?xml version="1.0" encoding="utf-8"?>
<!-- Generator: Adobe Illustrator 18.0.0, SVG Export Plug-In . SVG Version: 6.00 Build 0)  -->
<!DOCTYPE svg PUBLIC "-//W3C//DTD SVG 1.1//EN" "http://www.w3.org/Graphics/SVG/1.1/DTD/svg11.dtd">
<svg version="1.1" id="Layer_1" xmlns="http://www.w3.org/2000/svg" xmlns:xlink="http://www.w3.org/1999/xlink" x="0px" y="0px"
	 viewBox="0 0 1190.6 841.9" enable-background="new 0 0 1190.6 841.9" xml:space="preserve">
<path fill="#ffffff" d="M1016.2,157.9H896.8c9-15.5,14.2-33.5,14.2-52.6C911,47.4,863.6,0,805.7,0c-26.3,0-51.3,9.2-69.7,26.3L595.3,149.4
	L463.7,34.2l-9.2-7.9C436.1,9.2,411.1,0,384.8,0c-57.9,0-105.2,47.4-105.2,105.2c0,19.1,5.2,37.1,14.2,52.6H174.3v223.6h52.6v460.4
	h736.7V381.5h52.6V157.9z M770.2,65.8l3.9-2.6c7.9-6.6,19.7-10.5,31.6-10.5c28.9,0,52.6,23.7,52.6,52.6c0,28.9-23.7,52.6-52.6,52.6
	H665L770.2,65.8z M661,381.5v407.8H529.5V381.5H661z M529.5,328.9V210.5H661v118.4H529.5z M332.2,105.2c0-28.9,23.7-52.6,52.6-52.6
	c11.8,0,22.4,3.9,31.6,10.5l109.2,94.7H384.8C355.9,157.9,332.2,134.2,332.2,105.2z M226.9,210.5h157.9h92.1v118.4H226.9V210.5z
	 M279.6,381.5h197.3v407.8H279.6V381.5z M911,789.3H713.7V381.5H911V789.3z M963.6,328.9H713.7V210.5h92.1h157.9V328.9z"/>
</svg>
