<?xml version="1.0" encoding="utf-8"?>
<!-- Generator: Adobe Illustrator 23.0.2, SVG Export Plug-In . SVG Version: 6.00 Build 0)  -->
<svg version="1.1" id="Capa_1" xmlns="http://www.w3.org/2000/svg" xmlns:xlink="http://www.w3.org/1999/xlink" x="0px" y="0px"
	 viewBox="0 0 225 218.8" style="enable-background:new 0 0 225 218.8;" xml:space="preserve">
<style type="text/css">
	.st0{fill:#8BC543;stroke:#006738;stroke-width:10.0087;stroke-miterlimit:10;}
	.st1{fill:#006738;}
	.st2{fill:#8BC543;}
	.st3{fill:#E8AF2E;}
	.st4{fill:#F9CA35;}
	.st5{fill:#C38728;}
	.st6{fill:#FFFFFF;}
</style>
<g>
	<g>
		
			<rect x="16.7" y="50.9" transform="matrix(0.8083 -0.5887 0.5887 0.8083 -34.3161 75.7907)" class="st0" width="165.1" height="79.4"/>
		<path class="st1" d="M125,71.8c10.4,14.2,7.2,34.1-7,44.5c-14.2,10.4-34.1,7.2-44.5-7c-10.4-14.2-7.2-34.1,7-44.5
			C94.7,54.5,114.6,57.6,125,71.8z"/>
		<path class="st1" d="M9.1,107.1l12.4,17c9.4-6.9,11.5-20.1,4.6-29.5L9.1,107.1z"/>
		<g>
			<g>
				<path class="st2" d="M99.6,79.8c-1.6-1.8-4.1-1.5-7.6,1c-3.5,2.5-4.5,4.7-3.2,6.5c0.8,1.1,2,1.5,3.5,1.2c1.5-0.3,4.2-1.4,8-3.2
					c3.8-1.8,7.1-2.5,9.8-2.2c2.7,0.4,4.9,1.8,6.7,4.2c2.1,2.8,2.4,5.9,1,9.3c-1.4,3.4-3.7,6.3-7,8.6c-7.9,5.7-14.6,6-20.1,0.8
					l6.1-5.3c2.8,2.8,6.3,2.7,10.5-0.3c3.9-2.9,4.9-5.6,3-8.3c-0.9-1.2-2-1.7-3.3-1.6c-1.4,0.1-4.1,1.1-8.1,3
					c-4,1.9-7.3,2.7-9.9,2.4c-2.6-0.3-4.6-1.5-6.2-3.6c-1.6-2.3-2-4.9-1.2-7.9c0.9-3,3.2-5.9,7-8.7c7.6-5.5,13.4-5.9,17.4-1.1
					L99.6,79.8z"/>
			</g>
			<rect x="83.5" y="69.9" transform="matrix(0.8081 -0.589 0.589 0.8081 -26.4975 65.5247)" class="st2" width="7.7" height="7"/>
			<rect x="108.1" y="103.7" transform="matrix(0.8082 -0.589 0.589 0.8082 -41.668 86.4842)" class="st2" width="7.7" height="7"/>
		</g>
		<path class="st1" d="M55.1,170.3l17.1-12.4c-6.9-9.4-20-11.5-29.5-4.6L55.1,170.3z"/>
		<path class="st1" d="M188.6,73l-12.4-17c-9.4,6.9-11.5,20-4.6,29.5L188.6,73z"/>
		<path class="st1" d="M142.6,9.9l-17,12.4c6.9,9.4,20,11.5,29.5,4.6L142.6,9.9z"/>
		<path class="st1" d="M62.3,117.5c2.3,3.2,1.6,7.7-1.6,10c-3.2,2.3-7.7,1.6-10-1.6c-2.3-3.2-1.6-7.7,1.6-10.1
			C55.5,113.6,60,114.3,62.3,117.5z"/>
		<path class="st1" d="M147.8,55.2c2.3,3.2,1.6,7.7-1.6,10c-3.2,2.3-7.7,1.6-10-1.6c-2.3-3.2-1.6-7.7,1.6-10
			C141,51.3,145.5,52,147.8,55.2z"/>
	</g>
	<g>
		
			<rect x="28.4" y="70.4" transform="matrix(0.8859 -0.4638 0.4638 0.8859 -38.4033 64.0342)" class="st0" width="165.1" height="79.4"/>
		<path class="st1" d="M139.2,95.3c8.2,15.6,2.1,34.8-13.4,43c-15.6,8.2-34.8,2.1-43-13.4c-8.2-15.6-2.1-34.8,13.4-43
			C111.8,73.7,131,79.7,139.2,95.3z"/>
		<path class="st1" d="M19.4,113.2l9.8,18.7c10.3-5.4,14.3-18.1,8.9-28.5L19.4,113.2z"/>
		<g>
			<g>
				<path class="st2" d="M113,99.4c-1.3-2-3.8-2.1-7.6-0.1c-3.8,2-5.2,4-4.1,6c0.7,1.2,1.7,1.8,3.2,1.7c1.5-0.1,4.3-0.7,8.4-2
					c4.1-1.2,7.4-1.5,10-0.7c2.6,0.8,4.6,2.5,6,5.1c1.6,3.1,1.5,6.2-0.4,9.4c-1.9,3.1-4.6,5.6-8.2,7.5c-8.7,4.5-15.3,3.8-20-2.2
					l6.9-4.3c2.4,3.2,5.8,3.6,10.4,1.2c4.3-2.2,5.7-4.8,4.2-7.7c-0.7-1.3-1.7-2-3.1-2.1c-1.4-0.1-4.2,0.5-8.4,1.8
					c-4.2,1.3-7.6,1.6-10.1,0.9c-2.5-0.7-4.4-2.1-5.6-4.4c-1.3-2.5-1.3-5.1,0-8c1.3-2.9,4.1-5.4,8.2-7.6c8.3-4.4,14.1-3.9,17.4,1.4
					L113,99.4z"/>
			</g>
			<polygon class="st2" points="106.7,92.7 99.9,96.2 96.7,90 103.5,86.5 			"/>
			
				<rect x="117.2" y="124.9" transform="matrix(0.8859 -0.4638 0.4638 0.8859 -45.7306 70.806)" class="st2" width="7.7" height="7"/>
		</g>
		<path class="st1" d="M55.6,182.4l18.7-9.8c-5.4-10.3-18.1-14.3-28.5-8.9L55.6,182.4z"/>
		<path class="st1" d="M201.9,105.8l-9.8-18.7c-10.3,5.4-14.3,18.2-8.9,28.5L201.9,105.8z"/>
		<path class="st1" d="M165.7,36.6L147,46.4c5.4,10.3,18.1,14.3,28.5,8.9L165.7,36.6z"/>
		<path class="st1" d="M70.5,131.3c1.8,3.5,0.5,7.9-3,9.7c-3.5,1.8-7.9,0.5-9.7-3c-1.8-3.5-0.5-7.9,3-9.7
			C64.3,126.4,68.6,127.8,70.5,131.3z"/>
		<path class="st1" d="M164.2,82.2c1.8,3.5,0.5,7.9-3,9.7c-3.5,1.8-7.9,0.5-9.7-3c-1.8-3.5-0.5-7.9,3-9.7
			C158,77.3,162.4,78.7,164.2,82.2z"/>
	</g>
	<g>
		
			<rect x="37.6" y="93.4" transform="matrix(0.9462 -0.3237 0.3237 0.9462 -36.6045 46.0786)" class="st0" width="165.1" height="79.3"/>
		<path class="st1" d="M150.4,122.8c5.7,16.6-3.2,34.8-19.8,40.5c-16.6,5.7-34.8-3.2-40.5-19.8c-5.7-16.6,3.2-34.8,19.8-40.5
			C126.5,97.2,144.7,106.1,150.4,122.8z"/>
		<path class="st1" d="M29.2,122.3l6.8,20c11-3.8,16.9-15.8,13.1-26.8L29.2,122.3z"/>
		<g>
			<g>
				<path class="st2" d="M123.8,122.8c-1-2.2-3.5-2.6-7.5-1.3c-4,1.4-5.7,3.2-5,5.3c0.4,1.3,1.4,2.1,2.9,2.2
					c1.5,0.2,4.4-0.1,8.6-0.7c4.2-0.6,7.5-0.3,10,0.8c2.5,1.1,4.2,3.1,5.1,6c1.1,3.3,0.5,6.4-1.8,9.2c-2.3,2.8-5.4,4.9-9.2,6.2
					c-9.2,3.2-15.7,1.4-19.4-5.2l7.4-3.2c1.8,3.5,5.2,4.4,10.1,2.8c4.6-1.6,6.3-3.9,5.3-7c-0.5-1.4-1.4-2.2-2.7-2.5
					c-1.3-0.3-4.2-0.1-8.6,0.5c-4.4,0.6-7.8,0.4-10.2-0.6c-2.4-1-4-2.8-4.8-5.2c-0.9-2.6-0.5-5.3,1.2-7.9c1.7-2.6,4.8-4.7,9.3-6.2
					c8.9-3,14.5-1.7,17,4L123.8,122.8z"/>
			</g>
			
				<rect x="110" y="109.7" transform="matrix(0.9461 -0.3239 0.3239 0.9461 -30.5089 42.9857)" class="st2" width="7.7" height="7"/>
			
				<rect x="123.6" y="149.2" transform="matrix(0.9462 -0.3236 0.3236 0.9462 -42.5559 49.4546)" class="st2" width="7.7" height="7"/>
		</g>
		<path class="st1" d="M54.5,196.1l20-6.8c-3.8-11-15.8-16.9-26.8-13.1L54.5,196.1z"/>
		<path class="st1" d="M210.8,142.7l-6.8-20c-11,3.8-16.9,15.8-13.1,26.8L210.8,142.7z"/>
		<path class="st1" d="M185.5,68.8l-20,6.8c3.8,11,15.8,16.9,26.8,13.1L185.5,68.8z"/>
		<path class="st1" d="M77,147.9c1.3,3.8-0.7,7.8-4.5,9.1c-3.8,1.3-7.8-0.7-9.1-4.5c-1.3-3.8,0.7-7.8,4.5-9.1
			C71.6,142.1,75.7,144.1,77,147.9z"/>
		<path class="st1" d="M177.1,113.6c1.3,3.8-0.7,7.8-4.5,9.1c-3.8,1.3-7.8-0.7-9.1-4.5c-1.3-3.8,0.7-7.8,4.5-9.1
			C171.7,107.9,175.8,109.9,177.1,113.6z"/>
	</g>
</g>
<g>
	<g>
		<path class="st3" d="M152.6,180.4c-5.7,19.1-25.8,30-44.9,24.4c-19.1-5.7-30-25.8-24.4-44.9c5.7-19.1,25.8-30,44.9-24.4
			C147.4,141.1,158.3,161.2,152.6,180.4z"/>
		<path class="st4" d="M146.4,178.5c-4.6,15.7-21.1,24.6-36.8,20c-15.7-4.6-24.6-21.1-20-36.8c4.6-15.7,21.1-24.6,36.8-20
			C142.1,146.4,151,162.8,146.4,178.5z"/>
		<g>
			<g>
				<path class="st5" d="M126.5,164.1c0.5-2.3-1.2-4-5.1-5.1c-3.9-1.2-6.2-0.7-6.8,1.4c-0.4,1.3,0,2.4,1.1,3.3c1.1,1,3.4,2.4,7,4.2
					c3.6,1.9,6,3.9,7.3,6.2c1.3,2.2,1.5,4.7,0.7,7.5c-1,3.2-3.1,5.2-6.5,6.1c-3.4,0.9-6.9,0.8-10.6-0.3c-8.9-2.7-13-7.6-12.2-14.8
					l7.6,1.6c-0.5,3.7,1.6,6.3,6.3,7.7c4.4,1.3,7.1,0.5,8-2.5c0.4-1.3,0.2-2.5-0.7-3.5c-0.9-1-3.2-2.4-6.9-4.4c-3.7-2-6.2-4-7.5-6.1
					c-1.3-2.1-1.6-4.4-0.9-6.7c0.8-2.5,2.5-4.4,5.3-5.5c2.8-1.1,6.4-1,10.7,0.3c8.6,2.6,12.2,6.8,10.9,12.6L126.5,164.1z"/>
			</g>
			
				<rect x="120.8" y="147.5" transform="matrix(0.2874 -0.9578 0.9578 0.2874 -56.2928 226.6259)" class="st5" width="6.7" height="7.3"/>
			
				<rect x="109.4" y="185.6" transform="matrix(0.2874 -0.9578 0.9578 0.2874 -101.0068 242.8749)" class="st5" width="6.7" height="7.3"/>
		</g>
	</g>
	<g>
		<g>
			<path class="st6" d="M92.9,158.1c0-2.8,1.3-7.2,2.2-8.1c0.9-0.9,5.2-2.2,8.1-2.2c-2.8,0-7-1.1-8.1-2.2c-1.1-1.1-2.2-5.2-2.2-8.1
				c0,2.9-1.1,7-2.3,8.2c-1.3,1.3-5.2,2-7.9,2c2.8,0,7,1.1,8.1,2.2C91.8,151.1,92.9,155.3,92.9,158.1z"/>
		</g>
		<g>
			<path class="st6" d="M99.7,159.7c0-1,0.4-2.5,0.8-2.9c0.3-0.3,1.9-0.8,2.9-0.8c-1,0-2.5-0.4-2.9-0.8c-0.4-0.4-0.8-1.9-0.8-2.9
				c0,1-0.4,2.5-0.8,2.9c-0.5,0.5-1.8,0.7-2.8,0.7c1,0,2.5,0.4,2.9,0.8C99.3,157.2,99.7,158.7,99.7,159.7z"/>
		</g>
		<g>
			<path class="st6" d="M86.3,167.4c0-1.4,0.6-3.5,1.1-4c0.5-0.5,2.6-1.1,4-1.1c-1.4,0-3.5-0.5-4-1.1c-0.6-0.6-1.1-2.6-1.1-4
				c0,1.4-0.5,3.5-1.2,4.1c-0.6,0.6-2.6,1-3.9,1c1.4,0,3.5,0.6,4,1.1C85.8,164,86.3,166,86.3,167.4z"/>
		</g>
	</g>
</g>
</svg>
