<svg
      xmlns="http://www.w3.org/2000/svg"
      x="0"
      y="0"
      enableBackground="new 0 0 512 512"
      version="1.1"
      viewBox="0 0 512 512"
      xmlSpace="preserve"
    >
      <path fill="#000" d="M503.072 313.291a9.987 9.987 0 00-.466-.5A40.812 40.812 0 00459 303.607l-.003.001V115.85h6.735c5.523 0 10-4.477 10-10V42.12c0-5.523-4.477-10-10-10H122.797c-5.523 0-10 4.477-10 10v63.73c0 5.523 4.477 10 10 10h6.735v174.525c-6.676 3.613-12.712 7.808-18.072 12.175a9.997 9.997 0 00-8.713-5.089H10c-5.523 0-10 4.477-10 10v132.916c0 5.523 4.477 10 10 10h52.808c5.523 0 10-4.477 10-10v-9.644h29.938c1.711 0 3.321-.43 4.729-1.187l2.539.61a302.023 302.023 0 0136.527 11.272l73.336 27.84a162.439 162.439 0 0057.857 10.612c32.256 0 63.498-9.449 90.346-27.327 48.826-32.51 127.569-85.137 128.358-85.665.071-.047.141-.095.21-.144a36.319 36.319 0 0015.092-25.299 36.308 36.308 0 00-8.668-28.154zM52.808 430.377H20V317.461h32.808v112.916zm39.939-19.644H72.808v-93.272h19.938v93.272zM357.18 52.12h98.552v43.73H357.18V52.12zm-20 0v43.73h-85.831V52.12h85.831zm-85.831 63.73h85.831v92.227l-10.773-7.472a9.997 9.997 0 00-11.396-.001l-20.746 14.382-20.746-14.382a9.985 9.985 0 00-5.697-1.782 9.983 9.983 0 00-5.699 1.783l-10.773 7.472V115.85zm-14.638 120.192a9.997 9.997 0 0010.336-.643l20.774-14.409 20.745 14.381a10 10 0 0011.395 0l20.745-14.381 20.774 14.409a9.996 9.996 0 0010.336.643 10 10 0 005.363-8.86v-68.536h19.2c5.523 0 10-4.477 10-10s-4.477-10-10-10h-19.2V115.85h81.817v196.929L393.2 333.823c-7.208-11.234-19.807-18.692-34.114-18.692h-86.749c-16.288 0-30.343-10.156-38.74-16.224-2.384-1.723-4.268-3.083-5.987-4.068-30.262-17.338-56.501-18.644-78.077-12.617V158.645h81.817v68.536a9.995 9.995 0 005.361 8.861zm-87.179-97.397V115.85h81.816v22.795h-81.816zm81.816-86.525v43.73h-98.552V52.12h98.552zm260.537 286.939c-.551 4.59-2.921 8.592-6.676 11.279-3.497 2.337-80.278 53.651-128.211 85.567-23.554 15.684-50.963 23.974-79.262 23.974a142.505 142.505 0 01-50.758-9.31l-73.336-27.84a322.21 322.21 0 00-38.954-12.02l-1.939-.465v-81.602c21.937-23.329 57.301-43.73 104.92-16.449.804.46 2.539 1.714 4.216 2.926 9.68 6.994 27.697 20.013 50.454 20.013h86.75c11.307 0 20.506 9.205 20.506 20.52s-9.199 20.52-20.506 20.52H199.336c-5.523 0-10 4.477-10 10s4.477 10 10 10h159.751c22.335 0 40.506-18.177 40.506-40.52 0-.912-.031-1.816-.09-2.713l66.988-30.782a20.81 20.81 0 0121.726 4.535c2.909 3.472 4.211 7.851 3.668 12.367z"></path>
      <path fill="#000" d="M177.571 384.22a10.122 10.122 0 00-1.49-3.6c-.37-.55-.79-1.06-1.25-1.52a10.146 10.146 0 00-3.239-2.16c-.61-.25-1.24-.44-1.87-.57a9.898 9.898 0 00-3.91 0c-.64.13-1.27.32-1.87.57-.61.25-1.19.56-1.73.92-.55.36-1.06.78-1.52 1.24-.46.461-.88.97-1.24 1.52a10.122 10.122 0 00-1.69 5.55c0 .65.07 1.31.2 1.96.13.63.32 1.26.57 1.87.25.6.56 1.18.92 1.72.36.55.78 1.06 1.24 1.52a9.87 9.87 0 003.25 2.17c.6.25 1.23.44 1.87.57.64.12 1.3.19 1.95.19.65 0 1.31-.07 1.96-.19.63-.13 1.26-.32 1.87-.57.6-.25 1.18-.56 1.72-.92a10.033 10.033 0 004.259-10.27zM424.273 146.688c-.13-.64-.32-1.26-.57-1.87-.25-.6-.56-1.18-.92-1.72-.36-.55-.78-1.06-1.24-1.53-.46-.46-.98-.87-1.52-1.24a10.098 10.098 0 00-3.6-1.49c-3.25-.65-6.71.41-9.02 2.73a10.185 10.185 0 00-2.17 3.25c-.25.61-.44 1.23-.57 1.87-.13.65-.19 1.31-.19 1.96a9.84 9.84 0 00.76 3.82c.25.6.56 1.19.92 1.73.37.55.78 1.06 1.25 1.52 1.86 1.86 4.43 2.93 7.07 2.93a10.098 10.098 0 005.55-1.69c.54-.36 1.06-.78 1.52-1.24.46-.46.88-.97 1.24-1.52a10.098 10.098 0 001.69-5.55c0-.65-.07-1.31-.2-1.96z"></path>
    </svg>