<?xml version="1.0"?>
<svg xmlns="http://www.w3.org/2000/svg" xmlns:xlink="http://www.w3.org/1999/xlink" xmlns:svgjs="http://svgjs.com/svgjs" version="1.1" width="512" height="512" x="0" y="0" viewBox="0 0 512 512" style="enable-background:new 0 0 512 512" xml:space="preserve" class=""><g>
<g xmlns="http://www.w3.org/2000/svg">
	<g>
		<path d="M461.96,99.276h-97.45c-8.008-11.714-21.466-19.419-36.692-19.419c-2.194,0-4.348,0.167-6.457,0.476    c0.186-2.011,0.294-4.045,0.294-6.104V15c0-5.482-2.99-10.527-7.799-13.159s-10.671-2.43-15.287,0.525l-38.053,24.357h-9.03    L213.432,2.367c-4.617-2.955-10.478-3.156-15.287-0.525c-4.809,2.632-7.799,7.677-7.799,13.159V74.23    c0,2.059,0.107,4.093,0.294,6.104c-2.11-0.309-4.265-0.476-6.459-0.476c-15.226,0-28.684,7.705-36.692,19.419H50.04    c-12.021,0-23.323,4.683-31.822,13.187c-8.499,8.5-13.179,19.803-13.178,31.826l0.002,105.002    c0,16.817,6.603,32.572,18.592,44.363c4.21,4.141,8.906,7.591,13.946,10.334V497c0,8.284,6.716,15,15,15h406.84    c8.284,0,15-6.716,15-15V303.798c19.338-10.74,32.541-31.585,32.541-55.284V144.288C506.96,119.469,486.773,99.276,461.96,99.276z     M220.347,42.412l18.664,11.947c2.414,1.545,5.221,2.366,8.087,2.366h17.809c2.865,0,5.671-0.822,8.084-2.367l18.664-11.946V74.23    c0,17.44-12.575,31.987-29.126,35.065h-13.056c-16.552-3.078-29.126-17.625-29.126-35.065V42.412z M175.521,135.839    c-3.664-2.762-5.765-6.97-5.765-11.544c0-7.961,6.471-14.438,14.425-14.438c7.954,0,14.425,6.477,14.425,14.438    c0,8.284,6.716,15,15,15h84.787c8.284,0,15-6.716,15-15c0-7.961,6.471-14.438,14.425-14.438c7.954,0,14.425,6.477,14.425,14.438    c0,4.575-2.101,8.782-5.765,11.544c-3.759,2.834-5.969,7.27-5.969,11.978c0,4.708,2.21,9.143,5.97,11.977    c3.663,2.762,5.764,6.969,5.764,11.544c0,7.961-6.471,14.438-14.425,14.438s-14.425-6.477-14.425-14.438c0-8.284-6.716-15-15-15    h-84.787c-8.284,0-15,6.716-15,15c0,7.961-6.471,14.438-14.425,14.438c-7.954,0-14.425-6.477-14.425-14.438    c0-4.575,2.101-8.782,5.764-11.544c3.76-2.834,5.97-7.269,5.97-11.977S179.28,138.674,175.521,135.839z M172.394,482h-36.671    V367.929h36.671V482z M444.419,482H202.394V352.929c0-8.284-6.716-15-15-15h-66.671c-8.284,0-15,6.716-15,15V482H67.58V311.487    c0.237-0.001,0.472,0.01,0.709,0.006c18.31-0.306,34.754-8.792,45.967-21.946c11.416,13.419,28.406,21.955,47.36,21.955    c18.862,0,35.777-8.455,47.192-21.761c11.415,13.307,28.33,21.761,47.192,21.761s35.777-8.455,47.192-21.761    c11.415,13.307,28.33,21.761,47.192,21.761c18.85,0,35.755-8.444,47.17-21.736c1.148,1.336,2.345,2.639,3.616,3.889    c11.648,11.454,26.958,17.753,43.249,17.839V482z M476.961,248.514L476.961,248.514c-0.001,17.896-14.192,32.691-31.636,32.982    c-8.721,0.152-16.918-3.133-23.119-9.231c-6.208-6.106-9.628-14.265-9.628-22.974c0-0.016-0.002-0.032-0.002-0.048v-13.872    c0-8.284-6.716-15-15-15s-15,6.716-15,15v13.92c0,17.761-14.441,32.21-32.191,32.21c-17.749,0-32.188-14.447-32.191-32.205    c0-0.003,0-0.005,0-0.007l-0.003-13.92c-0.002-8.284-6.717-14.997-15-14.997c-0.001,0-0.002,0-0.003,0    c-8.285,0.002-14.999,6.719-14.997,15.003l0.003,13.86c0,0.019-0.003,0.038-0.003,0.058c0,17.761-14.441,32.21-32.191,32.21    s-32.191-14.449-32.191-32.21c0-0.013-0.002-0.026-0.002-0.039v-13.882c0-8.284-6.716-15-15-15s-15,6.716-15,15v13.911    c0,0.003,0,0.006,0,0.01c0,17.761-14.441,32.21-32.191,32.21c-17.748,0-32.188-14.447-32.191-32.205c0-0.002,0-0.005,0-0.007    l-0.002-13.92c-0.001-8.284-6.716-14.998-15-14.998h-0.002c-8.285,0.001-14.999,6.718-14.998,15.002l0.002,13.086    c0,0.019-0.003,0.036-0.003,0.055c0,17.896-14.191,32.691-31.635,32.982c-8.704,0.161-16.918-3.133-23.119-9.231    c-6.208-6.105-9.628-14.265-9.628-22.974V144.289c0-4.011,1.561-7.782,4.396-10.618c2.833-2.834,6.599-4.395,10.604-4.395h90.015    c0.735,6.663,2.911,12.973,6.393,18.54c-4.34,6.938-6.692,15.023-6.692,23.521c0,24.503,19.929,44.438,44.425,44.438    c19.236,0,35.656-12.293,41.821-29.438h59.996c6.165,17.145,22.584,29.438,41.821,29.438c24.496,0,44.425-19.935,44.425-44.438    c0-8.499-2.352-16.583-6.692-23.521c3.482-5.567,5.658-11.877,6.393-18.54h90.016c8.271,0,15,6.734,15,15.012V248.514z" fill="#ffffff" data-original="#000000" style="" class=""/>
	</g>
</g>
<g xmlns="http://www.w3.org/2000/svg">
	<g>
		<path d="M409.63,337.93H262.399c-8.284,0-15,6.716-15,15v79.333c0,8.284,6.716,15,15,15H409.63c8.284,0,15-6.716,15-15V352.93    C424.63,344.646,417.914,337.93,409.63,337.93z M394.63,417.262H277.399v-49.333H394.63V417.262z" fill="#ffffff" data-original="#000000" style="" class=""/>
	</g>
</g>
<g xmlns="http://www.w3.org/2000/svg">
</g>
<g xmlns="http://www.w3.org/2000/svg">
</g>
<g xmlns="http://www.w3.org/2000/svg">
</g>
<g xmlns="http://www.w3.org/2000/svg">
</g>
<g xmlns="http://www.w3.org/2000/svg">
</g>
<g xmlns="http://www.w3.org/2000/svg">
</g>
<g xmlns="http://www.w3.org/2000/svg">
</g>
<g xmlns="http://www.w3.org/2000/svg">
</g>
<g xmlns="http://www.w3.org/2000/svg">
</g>
<g xmlns="http://www.w3.org/2000/svg">
</g>
<g xmlns="http://www.w3.org/2000/svg">
</g>
<g xmlns="http://www.w3.org/2000/svg">
</g>
<g xmlns="http://www.w3.org/2000/svg">
</g>
<g xmlns="http://www.w3.org/2000/svg">
</g>
<g xmlns="http://www.w3.org/2000/svg">
</g>
</g></svg>
