<svg id="Capa_1" enable-background="new 0 0 512 512" height="512" viewBox="0 0 512 512" width="512" xmlns="http://www.w3.org/2000/svg"><g><path fill="#000" d="m460.86 291.272v-8.536c0-22.459-18.272-40.731-40.731-40.731h-69.688c-1.238-8.649-5.213-16.635-11.503-22.925-2.434-2.434-5.157-4.513-8.078-6.242v-38.125c30.682-16.428 50-48.26 50-83.695 0-41.155-26.25-77.427-65.319-90.259-9.687-3.181-19.681 4.043-19.681 14.251v74.528h-20v-74.529c0-10.212-10.002-17.433-19.682-14.25-38.964 12.801-65.213 48.969-65.318 90.003-.085 35.729 19.962 67.604 50 83.85v32.689c-19.169 1.133-34.779 9.984-38.917 13.665l-38.978 34.659h-96.825c-8.284 0-15 6.716-15 15v187.886c0 8.284 6.716 15 15 15h74.5c17.993 0 37.39 10.089 56.149 19.845 15.593 8.109 33.86 18.644 62.601 18.644h130.738c22.459 0 40.731-18.272 40.731-40.731v-8.536c0-7.182-1.876-13.932-5.152-19.797 9.234-7.473 15.152-18.889 15.152-31.666v-8.536c0-7.182-1.876-13.931-5.152-19.796 9.234-7.473 15.152-18.888 15.152-31.665v-8.54c0-7.181-1.876-13.93-5.152-19.795 9.235-7.473 15.153-18.889 15.153-31.666zm-30-8.536v8.536c0 5.917-4.814 10.732-10.731 10.732-7.611 0-60.766 0-69.269 0v-29.999h69.269c5.917 0 10.731 4.814 10.731 10.731zm-10 59.997v8.54c0 5.916-4.813 10.73-10.73 10.73-6.269 0-53.168 0-59.927 0 .424-2.475.656-5.015.656-7.609v-22.391h59.27c5.917 0 10.731 4.814 10.731 10.73zm-10 60.001v8.536c0 5.917-4.814 10.732-10.731 10.732-7.322 0-56.562 0-64.272 0-8.271 0-15-6.729-15-15s6.729-15 15-15h.003 64.269c5.917 0 10.731 4.815 10.731 10.732zm-190-311.897c.052-20.417 9.564-39.074 25-51.101v51.212c0 15.764 12.826 28.589 28.59 28.589h22.82c15.765 0 28.59-12.825 28.59-28.589v-51.217c15.484 12.059 25 30.788 25 51.287 0 26.633-15.946 50.292-40.625 60.274-5.667 2.292-9.375 7.793-9.375 13.905v41.959h-30v-42.019c0-6.095-3.688-11.583-9.33-13.887-24.389-9.958-40.733-34.238-40.67-60.413zm-10.228 375.904c-20.936-10.888-44.665-23.23-69.992-23.23h-59.5v-157.887h87.53c3.675 0 7.222-1.349 9.968-3.79l42.372-37.678c7.302-4.583 15.706-7.001 24.37-7.001h64.77c5.9 0 10.71 4.775 10.71 10.7v106.539c0 8.271-6.729 15-15 15-8.283 0-15-6.718-15-15v-52.53c0-7.8-5.926-14.579-13.699-15.228-7.736-.646-14.625 4.437-15.968 12.065-.833 3.144-7.859 24.394-45.343 24.394-8.284 0-15 6.716-15 15s6.716 15 15 15c19.841 0 34.436-4.638 45.01-10.625v11.926c0 20.162 13.194 37.003 31.086 42.802-3.193 14.305.738 29.018 10.406 39.805-11.035 12.311-14.4 29.535-8.915 44.999h-34.047c-20.476-.001-33.157-7.146-48.758-15.261zm190.228 4.528c0 5.917-4.814 10.732-10.731 10.732h-54.269-.003c-8.271 0-15-6.729-15-15s6.729-15 15-15h54.272c5.917 0 10.731 4.814 10.731 10.732z"/></g></svg>